<?xml version="1.0" standalone="no"?>
<!DOCTYPE svg PUBLIC "-//W3C//DTD SVG 20010904//EN"
 "http://www.w3.org/TR/2001/REC-SVG-20010904/DTD/svg10.dtd">
<svg version="1.0" xmlns="http://www.w3.org/2000/svg"
 width="612.000000pt" height="612.000000pt" viewBox="0 0 612.000000 612.000000"
 preserveAspectRatio="xMidYMid meet">
<metadata>
Created by potrace 1.14, written by Peter Selinger 2001-2017
</metadata>
<g transform="translate(0.000000,612.000000) scale(0.100000,-0.100000)"
fill="#000000" stroke="none">
<path d="M2872 5348 c-24 -11 -94 -31 -155 -45 -141 -31 -198 -56 -241 -103
-39 -44 -58 -96 -86 -244 -11 -60 -23 -121 -27 -135 -6 -23 -3 -21 28 14 98
112 150 138 309 154 109 12 123 16 157 53 42 44 61 107 69 221 4 61 3 107 -2
106 -5 0 -28 -10 -52 -21z m-240 -218 c-33 -23 -84 -69 -113 -103 -79 -93 -86
-98 -40 -30 52 78 100 126 154 152 65 31 65 25 -1 -19z"/>
<path d="M3173 5316 c-3 -89 -52 -149 -204 -249 -78 -52 -98 -71 -123 -117
-29 -51 -31 -63 -31 -150 0 -87 3 -101 32 -160 18 -36 73 -111 123 -170 105
-120 121 -145 145 -219 29 -90 17 -179 -48 -351 -30 -80 -62 -167 -70 -195
-45 -140 -58 -377 -33 -624 l12 -123 -31 35 c-145 169 -183 216 -253 314 -132
185 -231 392 -345 728 -36 105 -80 231 -100 280 -22 57 -37 116 -41 161 -11
134 -61 259 -135 338 -29 31 -31 36 -12 26 50 -26 109 -91 136 -152 22 -48 29
-84 34 -162 6 -87 8 -96 15 -61 4 22 26 105 47 184 42 156 45 186 25 244 -23
62 -62 104 -132 138 -87 43 -181 45 -264 7 -80 -36 -113 -69 -191 -185 -82
-121 -123 -154 -205 -161 -32 -3 -54 -9 -54 -16 0 -21 55 -100 90 -129 69 -58
107 -71 205 -67 193 8 226 5 293 -25 114 -51 145 -105 222 -385 105 -385 192
-612 324 -847 l46 -81 -72 25 c-141 49 -239 64 -458 70 -113 3 -203 3 -200 0
3 -3 70 -20 149 -37 343 -75 597 -165 697 -246 100 -81 184 -345 184 -578 l0
-58 -43 59 c-91 123 -218 206 -363 239 -102 22 -273 15 -358 -15 -32 -12 -89
-26 -125 -32 -36 -6 -118 -24 -181 -39 -154 -39 -280 -60 -352 -60 -66 0 -191
23 -252 47 -92 37 -201 125 -239 195 l-19 33 21 -25 c11 -14 21 -29 21 -34 0
-5 3 -6 6 -3 4 3 27 -12 52 -33 25 -22 49 -40 54 -40 5 0 6 -5 2 -12 -4 -6 -3
-8 4 -4 6 3 22 1 36 -5 22 -10 24 -15 13 -27 -10 -13 -9 -14 2 -7 10 5 12 4 7
-3 -5 -8 -2 -10 8 -6 9 3 13 10 10 15 -3 5 2 6 11 3 13 -5 13 -9 3 -22 -11
-13 -10 -14 8 -4 15 8 32 8 55 1 111 -32 250 -29 480 11 120 20 206 45 124 36
-132 -16 -334 -17 -408 -2 -138 27 -193 67 -360 260 -79 90 -183 138 -331 152
l-73 7 38 -79 c26 -53 49 -123 68 -210 17 -75 42 -156 59 -190 36 -70 105
-142 176 -180 44 -25 64 -29 153 -32 151 -6 277 26 578 148 72 29 161 63 200
76 l70 24 -47 -47 c-51 -53 -95 -135 -157 -293 -74 -189 -176 -328 -276 -376
-38 -18 -67 -24 -122 -24 -40 0 -73 -4 -73 -10 0 -13 96 -40 144 -40 61 0 134
39 197 106 95 101 131 161 257 425 47 97 71 135 103 162 121 104 402 60 582
-90 111 -93 191 -230 224 -387 19 -94 19 -307 -2 -427 -48 -278 -238 -644
-454 -871 -50 -54 -57 -58 -100 -58 -27 0 -41 -4 -33 -8 7 -5 -15 -6 -48 -4
-33 2 -99 1 -146 -3 -255 -21 138 -45 741 -45 630 0 1066 24 808 44 -105 8
-645 -4 -715 -16 -16 -3 -28 -1 -28 3 0 5 -117 8 -261 8 -143 -1 -263 1 -266
5 -4 3 204 6 460 6 257 0 467 2 467 5 0 3 -16 26 -36 52 -47 61 -77 122 -106
213 -21 68 -23 92 -22 265 0 221 20 339 99 583 62 191 122 307 202 388 150
153 274 194 633 210 236 10 279 26 408 147 74 70 149 113 183 104 11 -3 16 -1
13 5 -6 10 59 3 77 -8 21 -12 -21 -31 -81 -37 -38 -3 -90 -17 -124 -33 l-60
-27 61 -17 c33 -9 119 -44 189 -78 112 -54 137 -62 187 -62 98 0 152 40 243
180 37 58 174 302 174 312 0 1 -62 3 -137 3 -164 0 -238 20 -332 91 -77 57
-103 67 -152 54 -84 -23 -134 -90 -190 -258 -44 -130 -75 -188 -121 -227 -70
-59 -76 -60 -413 -60 -287 0 -316 -2 -387 -22 -149 -42 -255 -112 -340 -224
-29 -37 -54 -66 -56 -64 -7 6 39 177 85 315 78 235 159 413 269 590 122 198
254 338 496 528 98 77 200 191 241 270 20 38 52 123 71 188 19 65 39 133 46
149 23 58 14 121 -29 205 -22 43 -45 96 -52 119 -7 22 -16 41 -20 41 -19 0
-97 -70 -126 -114 -38 -56 -53 -103 -53 -168 0 -46 7 -62 101 -238 28 -50 25
-124 -7 -187 -33 -67 -128 -170 -250 -269 -215 -175 -293 -245 -361 -325 -178
-211 -376 -573 -474 -869 l-28 -85 -1 80 c0 47 15 167 36 290 44 263 50 375
33 590 -8 94 -14 226 -14 295 0 146 12 180 90 248 45 40 73 50 224 83 93 20
141 84 141 189 0 36 -2 41 -17 35 -10 -5 -65 -21 -122 -36 -128 -35 -197 -75
-252 -148 -113 -151 -140 -317 -104 -636 21 -189 18 -405 -9 -635 -13 -107
-24 -190 -25 -185 -11 114 -41 313 -78 525 -43 248 -46 277 -47 450 0 168 2
196 27 301 15 64 43 163 62 220 54 159 59 210 39 368 -9 77 -14 161 -11 196 9
100 28 140 178 395 42 70 44 78 44 150 0 100 -39 182 -124 263 -33 31 -63 57
-68 57 -4 0 -9 -20 -10 -44z m-49 -391 c-4 -8 -11 -15 -16 -15 -6 0 -5 6 2 15
7 8 14 15 16 15 2 0 1 -7 -2 -15z m-26 -62 c-20 -41 -23 -250 -5 -338 8 -38
17 -92 20 -120 5 -42 -1 -31 -33 65 -37 107 -39 122 -37 216 1 77 5 100 15 97
8 -3 10 0 6 10 -3 9 1 29 9 44 9 15 18 37 21 47 4 10 9 16 12 13 3 -3 0 -18
-8 -34z m-1105 -170 c49 -25 108 -93 138 -160 16 -36 28 -68 26 -70 -2 -2 -12
15 -22 38 -38 83 -160 167 -249 170 -17 1 -23 3 -13 6 9 2 17 9 17 15 0 6 9 8
20 5 22 -6 28 8 8 17 -7 3 1 3 17 -1 17 -3 43 -12 58 -20z m-168 -12 c-2 -5
-14 -11 -26 -14 -20 -5 -20 -5 -4 13 17 18 41 18 30 1z m3276 -2010 c-17 -21
-47 -53 -67 -71 -30 -26 -38 -29 -52 -18 -27 20 -28 21 -12 16 18 -6 103 51
132 87 11 14 22 25 25 25 2 0 -9 -18 -26 -39z m-135 -113 c-9 -5 -22 -7 -29
-4 -7 2 -4 5 6 5 9 1 17 6 17 12 0 5 5 7 11 3 8 -5 6 -10 -5 -16z m-63 -15
c-13 -2 -35 -2 -50 0 -16 2 -5 4 22 4 28 0 40 -2 28 -4z"/>
<path d="M3650 5248 c0 -13 5 -43 11 -68 5 -24 17 -92 25 -150 12 -90 21 -120
65 -210 45 -91 52 -115 57 -181 5 -85 -13 -165 -54 -235 -28 -47 -119 -138
-181 -178 -24 -16 -40 -33 -36 -39 3 -6 1 -7 -5 -3 -6 3 -40 -13 -76 -36 -36
-24 -98 -64 -138 -90 -76 -50 -182 -137 -123 -102 155 92 178 103 465 209 265
98 343 140 441 235 62 60 86 92 116 155 37 78 38 83 38 190 0 98 -3 116 -26
166 -32 68 -88 132 -149 171 -25 16 -109 49 -186 73 -81 26 -158 57 -180 73
-63 45 -64 46 -64 20z m304 -607 c-5 -3 -9 -22 -10 -41 -1 -39 -52 -152 -65
-144 -5 3 -6 -1 -3 -9 3 -9 -23 -43 -68 -88 -55 -57 -95 -86 -165 -122 -51
-27 -93 -46 -93 -43 0 3 27 19 60 36 66 34 172 127 226 202 20 26 39 46 43 44
4 -3 7 3 8 12 1 9 13 49 27 87 17 47 26 93 27 140 l2 70 10 -69 c5 -39 6 -71
1 -75z"/>
<path d="M1336 5089 c-52 -41 -24 -119 43 -119 46 0 71 24 71 68 0 33 -38 72
-70 72 -10 0 -29 -9 -44 -21z"/>
<path d="M4635 5088 c-28 -16 -35 -28 -35 -65 0 -58 68 -83 108 -40 30 32 28
71 -4 96 -30 24 -41 25 -69 9z"/>
<path d="M3498 4892 c-79 -61 -157 -168 -186 -256 -14 -42 -26 -115 -32 -194
-13 -160 -30 -320 -37 -352 -6 -23 -2 -21 40 17 25 23 90 72 145 108 109 71
187 147 223 216 19 35 23 59 23 119 0 67 -5 86 -44 175 -30 68 -45 119 -48
158 -2 31 -8 57 -13 57 -4 0 -36 -22 -71 -48z"/>
<path d="M2501 4879 c-7 -25 -47 -92 -92 -154 -148 -206 -147 -290 13 -567
l44 -77 23 74 c28 91 60 142 144 231 95 101 117 138 117 193 0 71 -40 141
-145 249 l-91 95 -13 -44z m-1 -312 c-11 -18 -26 -61 -35 -95 -17 -64 -16 -91
11 -287 10 -75 -6 -28 -27 81 -31 157 -19 243 44 312 28 30 30 28 7 -11z"/>
<path d="M4410 4820 c-25 -36 -37 -107 -26 -164 4 -20 29 -65 57 -102 68 -88
96 -153 108 -249 17 -135 -17 -292 -76 -357 -9 -10 -12 -18 -6 -18 20 0 169
166 221 245 147 224 115 416 -85 506 -94 42 -123 66 -148 122 l-22 50 -23 -33z"/>
<path d="M1332 4502 c-10 -31 -32 -59 -97 -117 -93 -85 -115 -125 -115 -206 0
-64 18 -107 69 -162 58 -63 126 -91 221 -91 41 0 93 6 115 13 95 31 245 93
245 101 0 5 -8 11 -19 15 -21 6 -232 216 -262 261 -11 16 -35 58 -54 94 -18
36 -46 80 -62 99 l-29 34 -12 -41z m98 -398 c0 -8 -19 -13 -24 -6 -3 5 1 9 9
9 8 0 15 -2 15 -3z m97 -50 c-3 -3 -12 -4 -19 -1 -8 3 -5 6 6 6 11 1 17 -2 13
-5z"/>
<path d="M2787 4420 c-12 -34 -43 -77 -102 -141 -150 -162 -190 -243 -183
-369 6 -108 36 -157 177 -291 l114 -110 19 53 c10 29 41 87 70 128 28 41 71
103 95 138 98 145 98 294 -1 447 -37 57 -102 133 -152 177 -19 17 -20 15 -37
-32z m-3 -461 c-28 -75 -30 -220 -5 -318 12 -46 20 -85 18 -87 -2 -2 -14 18
-27 46 -22 47 -25 60 -29 140 -1 26 -4 31 -11 20 -7 -11 -9 -4 -8 25 1 22 5
43 10 46 4 3 10 23 12 46 2 22 9 50 15 62 7 12 9 26 6 31 -3 6 -1 10 5 10 6 0
8 5 4 12 -5 7 -3 8 6 3 10 -6 12 -4 6 11 -5 14 -4 16 4 8 7 -7 6 -23 -6 -55z"/>
<path d="M1850 4385 c-8 -2 -70 -9 -137 -16 -68 -6 -123 -13 -123 -15 0 -2 12
-20 26 -41 14 -21 37 -60 51 -88 64 -125 109 -155 235 -155 98 0 155 -22 232
-91 28 -25 47 -36 43 -26 -4 11 -3 16 4 12 5 -4 7 -15 4 -26 -4 -10 -2 -19 4
-19 5 0 22 -25 37 -55 14 -31 28 -54 29 -53 3 3 -6 58 -45 261 -39 206 -125
302 -282 312 -35 2 -70 2 -78 0z m94 -204 c4 -5 -3 -7 -14 -4 -23 6 -26 13 -6
13 8 0 17 -4 20 -9z m86 -49 c0 -8 -12 -4 -35 10 -45 29 -45 40 0 19 19 -9 34
-22 35 -29z"/>
<path d="M4852 4297 c-47 -18 -99 -63 -121 -105 -10 -20 -28 -72 -40 -115 -26
-97 -42 -127 -93 -183 -51 -56 -121 -100 -203 -129 -36 -12 -68 -25 -71 -28
-11 -11 141 -19 229 -12 248 19 357 68 417 188 25 50 30 72 30 130 0 78 -26
235 -42 255 -13 15 -62 14 -106 -1z m-122 -384 c-25 -32 -60 -58 -60 -45 0 9
68 71 78 72 2 0 -6 -12 -18 -27z m-70 -58 c0 -2 -10 -9 -22 -15 -22 -11 -22
-10 -4 4 21 17 26 19 26 11z"/>
<path d="M3941 4187 c-44 -55 -98 -169 -110 -233 -6 -28 -9 -118 -9 -200 1
-146 1 -151 -35 -260 -44 -133 -46 -149 -9 -98 43 59 109 115 220 188 110 73
153 117 171 175 27 91 6 162 -80 274 -60 78 -98 147 -99 180 0 26 -12 20 -49
-26z m69 -357 c-7 -28 -16 -50 -22 -50 -5 0 -6 -4 -3 -10 3 -5 1 -10 -5 -10
-6 0 -8 -4 -5 -10 3 -5 1 -10 -5 -10 -6 0 -9 -4 -6 -9 3 -4 -14 -36 -39 -70
-57 -82 -65 -88 -26 -21 57 97 111 213 112 239 0 15 3 20 6 13 3 -7 -1 -35 -7
-62z"/>
<path d="M1572 3885 c-188 -127 -152 -380 67 -467 47 -19 75 -22 181 -22 124
0 272 23 285 45 4 5 -15 9 -42 9 -84 0 -204 70 -264 153 -16 22 -38 72 -50
111 -18 64 -100 206 -118 206 -3 0 -30 -16 -59 -35z"/>
<path d="M1796 3848 c31 -181 102 -268 217 -268 74 0 137 -26 230 -95 108 -80
202 -145 211 -145 4 0 -4 15 -17 33 -40 53 -83 135 -130 250 -88 212 -170 273
-333 247 -49 -8 -84 -8 -115 -1 -67 16 -69 15 -63 -21z m469 -315 c71 -76 106
-118 79 -93 -127 116 -232 230 -211 230 2 0 61 -62 132 -137z"/>
<path d="M1038 3863 c-45 -5 -47 -11 -12 -44 55 -51 67 -93 74 -244 4 -119 9
-147 28 -187 49 -99 176 -179 319 -200 68 -10 104 -9 220 5 76 10 161 23 188
31 l50 13 -54 8 c-68 9 -229 90 -295 147 -67 57 -122 146 -151 242 -30 96 -52
135 -97 170 -62 47 -171 71 -270 59z m314 -385 c11 -16 16 -28 13 -28 -4 0 3
-8 16 -18 14 -12 18 -21 11 -26 -16 -10 -84 112 -81 147 0 7 5 -1 11 -18 6
-16 20 -42 30 -57z m168 -145 c14 -7 31 -13 38 -13 6 0 12 -7 12 -15 0 -8 5
-15 11 -15 5 0 8 4 4 10 -3 5 20 0 52 -11 32 -11 71 -22 88 -25 16 -3 31 -7
34 -10 8 -7 -42 -4 -89 7 -93 21 -120 30 -115 39 3 6 -1 7 -9 4 -9 -3 -16 -1
-16 6 0 6 -5 8 -10 5 -13 -8 -106 50 -114 71 -4 11 8 8 41 -12 27 -15 59 -34
73 -41z"/>
<path d="M525 3825 c-47 -46 -23 -118 42 -131 27 -5 37 -1 63 24 37 37 38 61
4 101 -33 39 -74 41 -109 6z"/>
<path d="M5123 3831 c-67 -25 -135 -74 -168 -122 -15 -21 -37 -72 -50 -114
-30 -95 -61 -149 -120 -208 -122 -119 -290 -157 -545 -121 -74 10 10 -15 170
-51 346 -77 555 -49 697 93 82 82 95 128 91 331 -2 91 1 176 5 189 11 28 -7
29 -80 3z"/>
<path d="M920 3713 c-1 -43 -33 -102 -89 -165 -68 -75 -91 -126 -91 -209 0
-81 31 -149 96 -209 74 -68 122 -85 239 -84 81 1 114 6 173 27 84 30 81 34 60
-80 -10 -54 -9 -71 6 -118 29 -94 125 -162 256 -181 l45 -7 -42 32 c-56 41
-87 89 -129 202 -22 60 -49 110 -75 141 l-39 47 22 13 c21 11 18 13 -37 21
-33 5 -70 9 -82 10 -12 1 -20 4 -18 6 2 2 -17 20 -43 40 -79 63 -113 142 -131
308 -6 57 -18 108 -32 135 -22 44 -66 98 -81 98 -4 0 -8 -12 -8 -27z m245
-529 c21 -8 35 -17 32 -20 -6 -6 -97 37 -122 57 -42 36 -84 83 -79 91 3 5 35
-18 69 -52 35 -33 80 -67 100 -76z"/>
<path d="M3699 3705 c-14 -7 -77 -23 -140 -35 -135 -26 -184 -51 -219 -112
-22 -38 -25 -54 -25 -150 0 -64 5 -112 11 -118 8 -8 13 -3 17 17 8 40 79 117
130 142 24 12 70 26 102 32 81 15 109 31 130 75 15 33 35 165 24 164 -2 -1
-16 -7 -30 -15z m-229 -208 c0 -2 -12 -14 -27 -28 l-28 -24 24 28 c23 25 31
32 31 24z"/>
<path d="M4380 3644 c-58 -27 -102 -59 -220 -165 -41 -36 -106 -90 -145 -119
-38 -29 -71 -53 -72 -54 -1 0 114 -1 255 0 209 0 269 4 322 17 126 34 223 129
255 252 8 32 15 62 15 66 0 3 -21 4 -48 1 -26 -2 -86 3 -133 12 -119 22 -164
20 -229 -10z"/>
<path d="M3523 3416 c-67 -17 -115 -54 -143 -112 -24 -48 -24 -63 -3 -272 l6
-64 26 34 c14 18 60 69 102 113 42 45 84 95 93 112 19 39 22 173 4 191 -14 14
-17 14 -85 -2z"/>
<path d="M5745 3398 c-30 -17 -44 -40 -45 -71 0 -35 40 -77 75 -77 35 0 75 42
75 77 -1 32 -15 55 -47 71 -26 15 -33 15 -58 0z"/>
<path d="M5255 3383 c-45 -24 -63 -41 -117 -120 -48 -70 -124 -138 -180 -164
-16 -7 -28 -15 -28 -19 0 -16 173 -119 220 -130 105 -25 199 13 250 103 33 57
39 122 20 205 -7 30 -7 56 1 84 8 32 8 43 -3 49 -22 15 -131 9 -163 -8z"/>
<path d="M3992 3138 c-42 -23 -223 -170 -217 -176 2 -2 12 1 23 7 25 13 80 15
67 2 -6 -4 -37 -13 -70 -20 -57 -10 -232 -88 -222 -98 3 -2 20 3 39 13 81 43
176 13 304 -95 175 -148 239 -180 331 -167 105 14 169 76 262 255 l61 120 -57
6 c-64 7 -158 47 -228 95 -119 82 -214 100 -293 58z"/>
<path d="M2053 3099 c-136 -23 -306 -147 -396 -289 -18 -29 -18 -30 0 -36 10
-3 71 -31 135 -61 l117 -55 93 4 c132 4 189 36 290 160 28 35 78 91 111 125
l61 62 -30 11 c-92 36 -236 79 -279 83 -27 2 -73 1 -102 -4z m362 -94 c-25 -9
-107 -12 -94 -4 8 5 34 8 59 8 25 0 41 -2 35 -4z"/>
<path d="M2511 2891 c-24 -16 15 -78 68 -108 56 -32 101 -72 101 -90 0 -8 5
-11 11 -7 16 9 4 85 -20 132 -10 20 -32 44 -48 54 -36 21 -94 31 -112 19z"/>
<path d="M3675 2761 c-22 -10 -69 -41 -103 -69 -37 -29 -79 -54 -99 -58 l-34
-6 29 -18 c16 -10 57 -39 91 -64 64 -47 112 -63 155 -52 14 3 53 29 87 56 47
38 71 50 96 50 18 0 33 4 33 8 0 15 -57 97 -86 124 -54 50 -104 59 -169 29z"/>
<path d="M1285 2530 c-3 -6 1 -7 9 -4 18 7 21 14 7 14 -6 0 -13 -4 -16 -10z"/>
<path d="M1320 2520 c-9 -6 -10 -10 -3 -10 6 0 15 5 18 10 8 12 4 12 -15 0z"/>
<path d="M2460 2451 c-84 -26 -127 -82 -117 -149 9 -51 46 -86 117 -107 l25
-7 -25 26 c-19 21 -24 37 -24 79 0 63 25 112 74 144 l33 23 -29 -1 c-16 0 -40
-4 -54 -8z"/>
<path d="M2164 2312 c-26 -107 -58 -176 -125 -267 -71 -98 -91 -140 -97 -210
-6 -76 16 -155 59 -214 l31 -43 30 31 c16 16 67 55 113 86 137 91 179 156 180
276 0 75 -1 79 -72 220 -40 79 -76 156 -79 172 -11 48 -19 38 -40 -51z m23 -4
c-3 -8 -6 -5 -6 6 -1 11 2 17 5 13 3 -3 4 -12 1 -19z m21 -98 c0 -22 -1 -22
-8 5 -4 17 -8 41 -8 55 0 22 1 22 8 -5 4 -16 8 -41 8 -55z m7 -136 c-4 -35
-10 -52 -17 -47 -7 4 -9 0 -5 -10 3 -9 0 -23 -8 -31 -8 -7 -12 -16 -10 -18 3
-2 -9 -17 -25 -33 -17 -16 -30 -23 -30 -17 0 7 4 12 9 12 12 0 61 98 61 122 0
10 5 18 11 18 6 0 10 10 9 23 -3 35 1 64 7 49 3 -7 2 -38 -2 -68z"/>
<path d="M1783 2257 c-72 -66 -142 -117 -163 -117 -10 0 -21 -7 -24 -16 -4 -9
-13 -14 -22 -10 -8 3 -13 2 -10 -3 10 -15 -111 -34 -177 -28 -34 3 -82 15
-107 27 -25 11 -36 18 -25 14 11 -4 65 -9 120 -11 116 -6 167 8 281 75 78 47
133 89 99 77 -11 -4 -60 -18 -109 -31 -118 -32 -211 -32 -314 1 -113 36 -159
40 -224 21 -64 -18 -134 -75 -172 -140 -14 -25 -26 -48 -26 -53 0 -4 29 -7 64
-5 70 4 116 -14 189 -70 189 -150 471 -42 646 247 19 30 31 58 28 61 -3 3 -27
-14 -54 -39z"/>
<path d="M3960 2275 c0 -3 20 -10 44 -16 69 -17 142 -95 205 -217 63 -124 87
-153 153 -186 49 -24 61 -26 200 -26 l149 0 -16 29 c-8 16 -42 53 -75 83 -43
37 -71 74 -99 128 -65 124 -129 169 -280 196 -72 13 -281 20 -281 9z m220 -70
c28 -14 50 -28 50 -30 0 -5 -99 42 -109 51 -12 11 15 1 59 -21z"/>
<path d="M4905 2209 c-95 -32 -210 -42 -289 -26 -47 10 -47 9 22 -108 89 -152
168 -205 283 -192 62 8 104 33 191 114 48 45 80 66 113 75 25 7 45 16 45 22 0
19 -85 89 -135 112 -86 37 -128 38 -230 3z m-147 -140 c36 -18 55 -21 105 -16
55 5 60 4 43 -9 -55 -40 -176 -1 -256 82 l-45 46 55 -41 c30 -23 75 -51 98
-62z"/>
<path d="M3733 2195 c-95 -26 -219 -103 -292 -179 l-35 -36 36 0 c57 0 200
-46 301 -96 109 -55 196 -110 314 -199 47 -36 89 -65 93 -65 4 0 1 19 -7 43
-12 33 -14 70 -8 178 6 122 4 140 -14 190 -25 65 -77 120 -144 149 -63 28
-174 35 -244 15z m83 -90 c52 -15 116 -62 136 -98 10 -19 7 -19 -23 6 -69 55
-109 70 -200 75 -89 4 -175 -12 -229 -44 l-25 -15 23 20 c32 28 166 70 223 71
25 0 68 -7 95 -15z"/>
<path d="M750 1830 c-28 -28 -26 -81 3 -108 49 -46 127 -12 127 56 0 43 -30
72 -75 72 -22 0 -43 -8 -55 -20z"/>
<path d="M4642 1673 c-15 -6 -42 -56 -42 -78 0 -26 55 -75 85 -75 38 0 75 41
75 84 0 55 -63 92 -118 69z"/>
</g>
</svg>
